<?xml version="1.0" encoding="UTF-8"?>
<svg id="Capa_2" data-name="Capa 2" xmlns="http://www.w3.org/2000/svg" viewBox="0 0 69.91 36.76">
  <defs>
    <style>
      .cls-1 {
        fill: #161616;
      }
    </style>
  </defs>
  <g id="Capa_1-2" data-name="Capa 1">
    <g>
      <path class="cls-1" d="M.15,10.97H4.62c.08,0,.15,.07,.15,.15v4.12h.09c2.25-3.42,6.12-4.99,9.99-4.99s8.05,1.53,9.58,5.4h.09c2.88-4.1,6.79-5.4,10.48-5.4,5.08,0,10.62,2.92,10.62,9.99v15.55c0,.08-.07,.15-.15,.15h-4.56c-.08,0-.15-.07-.15-.15v-13.53c0-4.91-2.92-7.69-7.11-7.69-5.04,0-8.41,3.37-8.41,7.96v13.26c0,.08-.07,.15-.15,.15h-4.56c-.08,0-.15-.07-.15-.15v-13.53c0-4.91-2.92-7.69-7.06-7.69-5.08,0-8.46,3.37-8.46,7.96v13.26c0,.08-.07,.15-.15,.15H.15c-.08,0-.15-.07-.15-.15V11.12c0-.08,.07-.15,.15-.15Z"/>
      <path class="cls-1" d="M45.43,31.77h-.09v4.07c0,.09-.07,.16-.16,.16h-4.45c-.09,0-.16-.07-.16-.16V.16c0-.09,.07-.16,.16-.16h4.54c.09,0,.16,.07,.16,.16V14.97c0,.15,.19,.21,.28,.09,2.53-3.21,6.36-4.76,10.7-4.76,7.92,0,13.5,5.71,13.5,13.18,0,8.1-6.3,13.27-13.81,13.27-4.72,0-8.55-1.98-10.66-4.99Zm9.76,.72c5.58,0,9.63-3.78,9.63-8.96s-4.1-8.91-9.63-8.91-9.85,3.69-9.85,8.95,4.45,8.91,9.85,8.91Z"/>
    </g>
  </g>
</svg>